<svg width="20" height="20" viewBox="0 0 20 20" fill="none" xmlns="http://www.w3.org/2000/svg">
<path d="M6.51558 17.5086C13.5914 17.5086 17.4609 11.6465 17.4609 6.56332C17.4609 6.39682 17.4575 6.23102 17.45 6.06613C18.2011 5.52308 18.8538 4.84541 19.3689 4.07406C18.6797 4.38056 17.9378 4.58661 17.1598 4.67983C17.954 4.2034 18.5637 3.45006 18.8513 2.552C18.1081 2.99266 17.2849 3.3128 16.4086 3.48572C15.7066 2.73799 14.7071 2.27039 13.6005 2.27039C11.4762 2.27039 9.75337 3.99311 9.75337 6.1167C9.75337 6.41872 9.78719 6.71227 9.85313 6.99388C6.65593 6.83301 3.82073 5.30235 1.9236 2.97466C1.59337 3.54305 1.4028 4.20352 1.4028 4.90825C1.4028 6.24271 2.08196 7.42112 3.11463 8.11026C2.48351 8.09088 1.8907 7.91762 1.37241 7.62924C1.37184 7.64541 1.37184 7.66112 1.37184 7.67831C1.37184 9.54139 2.69782 11.0969 4.45827 11.4494C4.13491 11.5374 3.7947 11.5847 3.44383 11.5847C3.19638 11.5847 2.95513 11.5604 2.72075 11.5153C3.21049 13.0438 4.63072 14.1561 6.31446 14.1873C4.99776 15.2192 3.33914 15.834 1.5365 15.834C1.22644 15.834 0.919945 15.8162 0.618835 15.7806C2.32138 16.8719 4.34303 17.5087 6.5157 17.5087" fill="black"/>
</svg>
