<svg id="cube" enable-background="new 0 0 300 300" height="512" viewBox="0 0 300 300" width="512" xmlns="http://www.w3.org/2000/svg"><path d="m254 82v130.725l-96 41.143v-123.868h-16v123.867l-96-41.143v-130.724h-16v136c0 3.2 1.907 6.093 4.849 7.354l112 48 .006-.013c1.001.429 2.069.66 3.147.66 1.067 0 2.14-.214 3.15-.646l112-48c2.941-1.262 4.848-4.155 4.848-7.355v-136z"/><path d="m150 138c-1.072 0-2.146-.216-3.151-.646l-112-48c-2.942-1.261-4.849-4.154-4.849-7.354s1.907-6.093 4.849-7.354l112-48c2.012-.861 4.291-.861 6.303 0l112 48c2.941 1.261 4.848 4.154 4.848 7.354s-1.907 6.093-4.849 7.354l-112 48c-1.005.43-2.079.646-3.151.646zm-91.691-56 91.691 39.296 91.691-39.296-91.691-39.296z" fill="#476afc"/></svg>