<svg width="44" height="44" viewBox="0 0 44 44" fill="none" xmlns="http://www.w3.org/2000/svg">
<circle cx="22" cy="22" r="22" fill="#FE0000"/>
<g clip-path="url(#clip0)">
<path d="M32.0638 30.8812L26.3516 25.1691C27.458 23.8023 28.1242 22.0657 28.1242 20.1742C28.1242 15.7902 24.5571 12.2231 20.1732 12.2231C15.7893 12.2231 12.2222 15.7902 12.2222 20.1741C12.2222 24.5581 15.7893 28.1251 20.1733 28.1251C22.0647 28.1251 23.8014 27.4589 25.1681 26.3525L30.8803 32.0647C31.0435 32.2279 31.2578 32.3099 31.4721 32.3099C31.6863 32.3099 31.9006 32.2279 32.0638 32.0647C32.391 31.7374 32.391 31.2085 32.0638 30.8812ZM20.1733 26.4512C16.7116 26.4512 13.8961 23.6358 13.8961 20.1741C13.8961 16.7125 16.7116 13.897 20.1733 13.897C23.6349 13.897 26.4504 16.7125 26.4504 20.1741C26.4504 23.6358 23.6348 26.4512 20.1733 26.4512Z" fill="white"/>
</g>
<defs>
<clipPath id="clip0">
<rect width="20.087" height="20.087" fill="white" transform="translate(12.2222 12.2222)"/>
</clipPath>
</defs>
</svg>
